<svg width="660" height="552" viewBox="0 0 660 552" fill="none" xmlns="http://www.w3.org/2000/svg">
<path d="M0 502.191C0 526.544 16.0368 536.047 33.5587 536.047C43.6559 536.047 52.2682 530.105 63.5532 523.275C96.2209 501.002 136.61 487.342 177.89 487.64C220.655 487.935 263.123 503.675 296.384 535.749C309.452 547.627 318.955 551.49 329.942 551.49C340.635 551.49 350.433 547.627 363.206 535.749C396.466 503.973 438.934 487.935 481.995 487.64C523.275 487.342 563.368 501.002 596.035 523.275C607.32 530.105 615.933 536.047 626.327 536.047C643.551 536.047 659.59 526.544 659.59 502.191V99.1908C659.59 94.142 659.292 89.9843 656.026 84.9358C629.593 38.9042 562.477 0 480.806 0C416.065 0 359.936 25.8371 329.942 62.3654C299.948 25.8371 243.522 0 179.078 0C97.1119 0 29.9948 38.9042 3.56375 84.9358C0.593955 89.9843 0 94.142 0 99.1908V502.191ZM47.8136 476.947V106.021C71.8687 71.2748 124.137 47.8136 179.078 47.8136C235.504 47.8136 284.802 71.5719 305.888 107.803V481.995C275.596 457.941 228.376 439.825 179.078 439.825C127.404 439.825 79.2931 454.376 47.8136 476.947ZM353.702 481.995V107.803C374.786 71.5719 424.383 47.8136 480.806 47.8136C535.451 47.8136 587.721 71.2748 611.776 106.021V476.947C580.294 454.376 532.185 439.825 480.806 439.825C431.213 439.825 383.994 457.941 353.702 481.995Z" fill="black" fill-opacity="0.85"/>
</svg>
