<svg width="408" height="417" viewBox="0 0 408 417" fill="none" xmlns="http://www.w3.org/2000/svg">
<path d="M22.1793 394.927C50.9871 423.732 94.0483 424.921 122.263 391.065C143.052 366.119 195.318 281.183 240.161 236.34C265.107 211.394 298.665 208.423 317.377 208.423C387.463 208.423 414.784 151.999 406.172 113.095L317.377 136.557L307.277 100.325C303.716 86.9609 309.357 75.6756 324.505 71.5179L390.137 53.9963C387.758 48.0569 382.117 39.4446 374.989 32.0202C334.601 -8.96273 267.78 -9.85375 227.985 28.1593C170.074 83.1 214.325 141.9 176.014 180.211C127.904 228.026 61.3814 263.068 26.0414 294.548C-7.22152 324.244 -6.92349 365.821 22.1793 394.927ZM71.4777 367.01C59.5994 367.01 49.7981 357.209 49.7981 345.331C49.7981 333.452 59.5994 323.949 71.4777 323.949C83.654 323.949 93.1573 333.452 93.1573 345.331C93.1573 357.209 83.654 367.01 71.4777 367.01Z" fill="white"/>
</svg>
